<svg xmlns="http://www.w3.org/2000/svg" xmlns:xlink="http://www.w3.org/1999/xlink" viewBox="0 0 466.89 450.72"><defs><style>.cls-1{isolation:isolate;}.cls-2{fill:#282560;}.cls-3{fill:url(#linear-gradient);}.cls-4{fill:url(#linear-gradient-2);}.cls-5{fill:url(#linear-gradient-3);}.cls-6{fill:url(#linear-gradient-4);}.cls-7{fill:url(#linear-gradient-5);}.cls-8{mix-blend-mode:overlay;fill:url(#linear-gradient-6);}.cls-9{fill:url(#linear-gradient-7);}.cls-10{fill:url(#linear-gradient-8);}.cls-11{fill:url(#linear-gradient-9);}.cls-12{fill:url(#linear-gradient-10);}.cls-13{fill:url(#linear-gradient-11);}.cls-14{fill:url(#linear-gradient-12);}.cls-15{fill:url(#linear-gradient-13);}</style><linearGradient id="linear-gradient" x1="287.62" y1="121.02" x2="297.34" y2="619.24" gradientUnits="userSpaceOnUse"><stop offset="0.02" stop-color="#fef1ed"/><stop offset="0.2" stop-color="#f2ece9"/><stop offset="0.53" stop-color="#d3dfdd"/><stop offset="0.97" stop-color="#a0cbca"/><stop offset="1" stop-color="#9cc9c9"/></linearGradient><linearGradient id="linear-gradient-2" x1="253.06" y1="366.09" x2="245.83" y2="477.82" gradientUnits="userSpaceOnUse"><stop offset="0" stop-color="#ec8a7b"/><stop offset="0.99" stop-color="#ec377c"/></linearGradient><linearGradient id="linear-gradient-3" x1="302.09" y1="376.18" x2="308.01" y2="467.53" gradientUnits="userSpaceOnUse"><stop offset="0" stop-color="#48c4d5"/><stop offset="0.99" stop-color="#2e3184"/></linearGradient><linearGradient id="linear-gradient-4" x1="346.74" y1="372.83" x2="338.2" y2="469.44" gradientUnits="userSpaceOnUse"><stop offset="0" stop-color="#faaf43"/><stop offset="0.16" stop-color="#f4a240"/><stop offset="0.47" stop-color="#e37f38"/><stop offset="0.88" stop-color="#c8482c"/><stop offset="1" stop-color="#bf3628"/></linearGradient><linearGradient id="linear-gradient-5" x1="384.6" y1="374.19" x2="374.74" y2="443.2" gradientUnits="userSpaceOnUse"><stop offset="0" stop-color="#38b34a"/><stop offset="0.16" stop-color="#34ac49"/><stop offset="0.39" stop-color="#2a9846"/><stop offset="0.66" stop-color="#197840"/><stop offset="0.97" stop-color="#024b39"/><stop offset="1" stop-color="#004738"/></linearGradient><linearGradient id="linear-gradient-6" x1="290.05" y1="419.76" x2="290.05" y2="204.9" gradientUnits="userSpaceOnUse"><stop offset="0" stop-color="#fff" stop-opacity="0.4"/><stop offset="1" stop-color="#f2f2f2" stop-opacity="0"/></linearGradient><linearGradient id="linear-gradient-7" x1="451.34" y1="224.31" x2="461.26" y2="328.07" xlink:href="#linear-gradient-4"/><linearGradient id="linear-gradient-8" x1="1029.46" y1="872.66" x2="1044.72" y2="972.6" gradientTransform="translate(1300.5 1240.86) rotate(-177.78)" xlink:href="#linear-gradient-5"/><linearGradient id="linear-gradient-9" x1="251.35" y1="229.56" x2="241.44" y2="341.7" xlink:href="#linear-gradient-4"/><linearGradient id="linear-gradient-10" x1="126.25" y1="227.5" x2="146.85" y2="357.19" gradientUnits="userSpaceOnUse"><stop offset="0.01" stop-color="#eb557c"/><stop offset="0.25" stop-color="#cf4d80"/><stop offset="0.75" stop-color="#893a8a"/><stop offset="0.99" stop-color="#65308f"/></linearGradient><linearGradient id="linear-gradient-11" x1="194.92" y1="238.83" x2="209.41" y2="344.11" xlink:href="#linear-gradient-3"/><linearGradient id="linear-gradient-12" x1="404.89" y1="182.51" x2="415.52" y2="344.09" xlink:href="#linear-gradient-10"/><linearGradient id="linear-gradient-13" x1="363.76" y1="211.49" x2="368.84" y2="310.18" xlink:href="#linear-gradient-2"/></defs><title>logoGame</title><g class="cls-1"><g id="Calque_1" data-name="Calque 1"><path class="cls-2" d="M86,195.52a10.27,10.27,0,1,1-10.26-10.27A10.26,10.26,0,0,1,86,195.52Z" transform="translate(-38.76 -152.88)"/><path class="cls-2" d="M70,224.54A15.64,15.64,0,1,1,54.39,208.9,15.63,15.63,0,0,1,70,224.54Z" transform="translate(-38.76 -152.88)"/><path class="cls-2" d="M256.32,507.32a27.83,27.83,0,1,1-27.82-27.83A27.82,27.82,0,0,1,256.32,507.32Z" transform="translate(-38.76 -152.88)"/><path class="cls-2" d="M463.59,574.42s-.78,26.57-28.14,28.81-13.73-6.6-12.23-6.7,4.51-7.42,6.51-7.52S463.59,574.42,463.59,574.42Z" transform="translate(-38.76 -152.88)"/><path class="cls-2" d="M377.85,170.5H173.33C111.69,170.5,61.54,229,61.54,300.82v83.55c0,71.85,50.15,130.31,111.79,130.31h74.92c22.83,35.88,73.53,88.87,173.77,88.87,4.41,0,8.92-.11,13.43-.32a12.81,12.81,0,0,0,3.17-25.05c-.48-.15-43.91-14-59.13-63.52,60.89-1,110.14-59.08,110.14-130.29V300.82C489.63,229,439.48,170.5,377.85,170.5Z" transform="translate(-38.76 -152.88)"/><path class="cls-2" d="M393.87,152.88H189.34c-61.63,0-111.78,58.46-111.78,130.32v83.55c0,71.85,50.15,130.31,111.78,130.31h74.93c22.82,35.87,73.53,88.87,173.77,88.87,4.4,0,8.92-.11,13.43-.32a12.81,12.81,0,0,0,3.16-25.05c-.47-.16-43.9-14-59.12-63.52,60.88-1,110.14-59.08,110.14-130.29V283.2C505.65,211.34,455.5,152.88,393.87,152.88Z" transform="translate(-38.76 -152.88)"/><path class="cls-3" d="M393.87,165.7H189.34c-54.65,0-99,52.61-99,117.5v83.55c0,64.88,44.31,117.49,99,117.49h82.13c19.62,33.73,70.08,93.61,179.4,88.57,0,0-59.91-18.39-71.49-88.57h14.49c54.65,0,99-52.61,99-117.49V283.2C492.83,218.31,448.52,165.7,393.87,165.7Z" transform="translate(-38.76 -152.88)"/><path class="cls-2" d="M341.74,401a11.37,11.37,0,0,1-3.87-2.49,6.28,6.28,0,0,1-1.37-4.26,15.84,15.84,0,0,1,.26-2.62,10.89,10.89,0,0,1,2.59-6c1.29-1.31,3.26-2,5.93-2a18.31,18.31,0,0,1,2.82.2q4.72.72,5.77,6.16a19.71,19.71,0,0,1,.39,3.67,6.88,6.88,0,0,1-1.05,4q-2.94,4.2-7.08,4.06A11.68,11.68,0,0,1,341.74,401Zm5.05,9.51a16.3,16.3,0,0,1,2.49.26q2.82.59,3.8,6.88a42.36,42.36,0,0,1,.33,8.78,44.31,44.31,0,0,0,.46,6.26,44.4,44.4,0,0,1,.46,6.26q-.13,3.48-2.82,4.66a7.46,7.46,0,0,1-3.08.65,10.45,10.45,0,0,1-3.21-.52c-2.5-.79-4-2.73-4.46-5.83a44.82,44.82,0,0,1,0-8c.3-6.34.52-10,.65-10.88q1.05-7.6,4.66-8.39C346.15,410.56,346.39,410.52,346.79,410.52Z" transform="translate(-38.76 -152.88)"/><path class="cls-2" d="M386.9,400.22a25.07,25.07,0,0,0-4.39-.52,108.61,108.61,0,0,0-14,0c-2.53-.44-4.09-1-4.65-1.77a14.32,14.32,0,0,1-1.64-5.77,3.88,3.88,0,0,1,1.11-3c1.45-1.61,4.44-2.47,9-2.55q5.12-.06,18.49-.33c4.5-.18,7.3,0,8.39.46q2.88,1.24,4.32,6.61a5.58,5.58,0,0,1,.2,1.57q0,4.57-6.29,11.39-4.59,5-7.54,8.44l4.68,2.32q4.26,1.9,4.26,5.17c0,2-.55,3.43-1.64,4.26l-2.69,1.5a1.57,1.57,0,0,1-.72.13c-2.1,0-5.44-1-10.55-3.61h0c-.44.74-1,1.35-2.45,3.32L378.38,431h-.07v.07l-.39.39q2.68.13,17,1.77c2.28.26,3.5,1.59,3.68,4q.39,5.64-5.51,6.1c-1.57.13-3.93.23-7.08.32q-20.32.66-22.75-3.86a7.75,7.75,0,0,1-1.11-3.61,4.33,4.33,0,0,1,.33-1.7,37.39,37.39,0,0,1,4.91-7.93c.53-.62,1.52-1.82,5-6.11l-5.82-2.86a4.63,4.63,0,0,1-2.56-4.19,5.06,5.06,0,0,1,1.77-4.33,7.93,7.93,0,0,1,4.72-1.84q2.63-.19,13.3,5.64c.49.26-5.33-2.77-4.37-2.24l5.64-8Q386.65,400.49,386.9,400.22Z" transform="translate(-38.76 -152.88)"/><path class="cls-2" d="M257,380.89a15,15,0,0,1,5.44,2.82,12.78,12.78,0,0,1,3.8,4.85,30.32,30.32,0,0,1,2.29,8.85l.66,6.68c.26,2.67.42,4.92.46,6.75a94.2,94.2,0,0,1-.59,10.62q4.45,1.19,9.63,3.08a3.17,3.17,0,0,1,1.45,1.87,6.24,6.24,0,0,1,.33,2.59,3,3,0,0,1-.2,1.25c-.13.43-.26.85-.4,1.24-.17.74-.84,1.32-2,1.74a6.27,6.27,0,0,1-3,.43,5.55,5.55,0,0,1-1.9-.27c-3.1-.65-4.81-1-5.11-1.11h-.2v.26a27.59,27.59,0,0,1-1.77,5.18q-2.22,5.11-9,6.68a36.71,36.71,0,0,1-9.63,1.12,87.35,87.35,0,0,1-11.47-1.38q-7.68-1.5-9.64-8.06c-.17-.61-.55-2.78-1.11-6.49a101.82,101.82,0,0,1-.92-11.73q-.08-5.83-.13-11.74t2.55-14.94q3.21-11.34,20.06-11.34c1.35,0,2.8.06,4.33.2A38.94,38.94,0,0,1,257,380.89Zm-6.23,13c-2.1-.66-5-.66-8.72,0s-6.2,5-7.08,13a88.39,88.39,0,0,0,0,16.65q.79,9.64,8.85,10.82a37.43,37.43,0,0,0,5.25.46c2.49,0,4.19-.4,5.11-1.18,1.53-1.27,2.29-2.38,2.29-3.34a60.5,60.5,0,0,1-10.55-2.3,8.42,8.42,0,0,1-3.47-2,2.16,2.16,0,0,1-.66-2.72c.66-2.18,1.7-3.41,3.15-3.67a23,23,0,0,1,7.14-.06l5.7.72V419Q257.77,396,250.76,393.87Z" transform="translate(-38.76 -152.88)"/><path class="cls-2" d="M329.16,439.29a4.1,4.1,0,0,1-3.54,1.9,7.62,7.62,0,0,1-2.56-.46,5.65,5.65,0,0,1-4.19-4.26q.12,2.23-2.89,3.87a27.18,27.18,0,0,1-11.67,2.88,22.12,22.12,0,0,1-10.81-1.83,12.36,12.36,0,0,1-6.88-8.19,58.5,58.5,0,0,1-1.45-10.69q-.45-8.65-.72-10.75a80.05,80.05,0,0,1-.13-13.37q.39-8.33,8.06-7.73c2.89.21,4.64,3,5.25,8.25q.25,2.43.06,11.21a137.3,137.3,0,0,0,.2,15.34q.58,5.12,7,5.11,6.11,0,8.07-5.9,1-3.07,1.24-11.14.19-10.62.27-15.93c.17-4.32,2-6.49,5.37-6.49a10.89,10.89,0,0,1,1.64.13q5.56,1,5.57,7.48,0,1.77-.33,5.31c-.22,2.36-.33,4.13-.33,5.3a73.33,73.33,0,0,0,.73,10.17q1.37,10.15,2.62,13.1a7.54,7.54,0,0,1-.59,6.69Z" transform="translate(-38.76 -152.88)"/><path class="cls-4" d="M254.66,378.57a14.88,14.88,0,0,1,5.44,2.82,12.71,12.71,0,0,1,3.81,4.85,30.64,30.64,0,0,1,2.29,8.85l.66,6.68q.39,4,.45,6.75a91.6,91.6,0,0,1-.58,10.62q4.45,1.19,9.63,3.08a3.12,3.12,0,0,1,1.44,1.87,5.92,5.92,0,0,1,.33,2.59,3,3,0,0,1-.2,1.25c-.13.43-.26.85-.39,1.24-.18.75-.84,1.32-2,1.74a6.21,6.21,0,0,1-3,.42,5.54,5.54,0,0,1-1.9-.26c-3.11-.65-4.81-1-5.12-1.11h-.19v.26a27.59,27.59,0,0,1-1.77,5.18q-2.24,5.12-9,6.68A36.74,36.74,0,0,1,245,443.2a87.77,87.77,0,0,1-11.47-1.38q-7.67-1.5-9.63-8.06c-.18-.61-.55-2.78-1.12-6.49a104.12,104.12,0,0,1-.92-11.73q-.06-5.84-.13-11.74t2.56-14.94q3.21-11.34,20.06-11.34c1.35,0,2.79.06,4.32.2A37.39,37.39,0,0,1,254.66,378.57Zm-6.22,13q-3.15-1-8.72,0-5.78,1.05-7.08,13a86.62,86.62,0,0,0,0,16.64q.78,9.65,8.85,10.82a37.31,37.31,0,0,0,5.24.46q3.74,0,5.12-1.18c1.52-1.27,2.29-2.38,2.29-3.34a60.3,60.3,0,0,1-10.55-2.3,8.42,8.42,0,0,1-3.48-2,2.15,2.15,0,0,1-.65-2.72c.65-2.18,1.7-3.41,3.14-3.67a23.33,23.33,0,0,1,7.15-.07l5.7.73v-1.25Q255.45,393.72,248.44,391.55Z" transform="translate(-38.76 -152.88)"/><path class="cls-5" d="M326.83,437a4.07,4.07,0,0,1-3.54,1.9,7.56,7.56,0,0,1-2.55-.46,5.68,5.68,0,0,1-4.2-4.26q.13,2.24-2.88,3.87A27.26,27.26,0,0,1,302,440.9a22.16,22.16,0,0,1-10.82-1.83,12.42,12.42,0,0,1-6.88-8.19,57.88,57.88,0,0,1-1.44-10.69q-.47-8.65-.72-10.75a77.9,77.9,0,0,1-.13-13.37q.39-8.32,8.06-7.74,4.32.33,5.24,8.26.27,2.43.07,11.21a134.75,134.75,0,0,0,.2,15.34q.58,5.12,7,5.11,6.09,0,8.06-5.9,1-3.08,1.25-11.14.19-10.62.26-15.93c.17-4.32,2-6.49,5.38-6.49a10.76,10.76,0,0,1,1.63.13q5.58,1,5.58,7.48,0,1.77-.33,5.31t-.33,5.31a74.57,74.57,0,0,0,.72,10.15q1.38,10.17,2.62,13.12a7.43,7.43,0,0,1-.59,6.68Z" transform="translate(-38.76 -152.88)"/><path class="cls-6" d="M339.42,398.69a11.53,11.53,0,0,1-3.87-2.49,6.24,6.24,0,0,1-1.38-4.26,16,16,0,0,1,.27-2.62,10.82,10.82,0,0,1,2.59-6q1.92-2,5.93-2a18.41,18.41,0,0,1,2.82.2q4.71.72,5.76,6.16a18.89,18.89,0,0,1,.4,3.67,6.88,6.88,0,0,1-1.05,4c-2,2.79-4.33,4.15-7.08,4.06A11.64,11.64,0,0,1,339.42,398.69Zm5.05,9.51a16.55,16.55,0,0,1,2.49.26c1.87.39,3.14,2.69,3.8,6.88a42.43,42.43,0,0,1,.32,8.78,44.31,44.31,0,0,0,.46,6.26,42.92,42.92,0,0,1,.46,6.26q-.12,3.48-2.82,4.66a7.31,7.31,0,0,1-3.08.65,10.5,10.5,0,0,1-3.21-.52c-2.49-.79-4-2.73-4.45-5.84a44.68,44.68,0,0,1,0-8q.45-9.51.65-10.88,1.05-7.61,4.65-8.39C343.83,408.24,344.07,408.2,344.47,408.2Z" transform="translate(-38.76 -152.88)"/><path class="cls-7" d="M385.56,397.9a26.18,26.18,0,0,0-4.39-.52,105.11,105.11,0,0,0-14,0q-3.79-.66-4.65-1.77a14.32,14.32,0,0,1-1.64-5.77,3.83,3.83,0,0,1,1.12-2.95c1.44-1.61,4.43-2.47,9-2.56q5.1,0,18.48-.32c4.5-.18,7.3,0,8.39.46,1.92.83,3.37,3,4.33,6.61a6,6,0,0,1,.19,1.57q0,4.58-6.29,11.39-4.59,5-7.54,8.44l4.68,2.32q4.26,1.9,4.26,5.17c0,2-.55,3.43-1.64,4.26-.61.35-1.5.85-2.68,1.5a1.65,1.65,0,0,1-.73.13c-2.09,0-5.44-1-10.55-3.61h0c-.44.74-1,1.35-2.45,3.32L377,428.71H377v.07l-.4.39q2.69.13,17.05,1.77c2.27.26,3.49,1.6,3.67,4q.39,5.64-5.51,6.1-2.35.19-7.08.32Q364.39,442,362,437.5a7.66,7.66,0,0,1-1.12-3.61,4.33,4.33,0,0,1,.33-1.7,37.79,37.79,0,0,1,4.92-7.94c.52-.61,1.52-1.81,5-6.1l-5.82-2.86a4.65,4.65,0,0,1-2.56-4.19,5.06,5.06,0,0,1,1.77-4.33,7.87,7.87,0,0,1,4.72-1.84q2.63-.19,13.31,5.64c.48.26-5.34-2.77-4.37-2.24l5.63-8Q385.31,398.17,385.56,397.9Z" transform="translate(-38.76 -152.88)"/><path class="cls-8" d="M388.76,179.78H191.34c-52.75,0-95.52,50.78-95.52,113.42v25.67c51.31,23.94,126.19,39,209.61,39,68,0,130.33-10,178.85-26.7v-38C484.28,230.56,441.51,179.78,388.76,179.78Z" transform="translate(-38.76 -152.88)"/><path class="cls-2" d="M200.67,535.15A13.72,13.72,0,1,1,187,521.43,13.73,13.73,0,0,1,200.67,535.15Z" transform="translate(-38.76 -152.88)"/><path class="cls-2" d="M221.69,548.87a9.22,9.22,0,1,1-9.21-9.22A9.21,9.21,0,0,1,221.69,548.87Z" transform="translate(-38.76 -152.88)"/><path class="cls-9" d="M449.71,234.5a47.09,47.09,0,0,1,20.1,2.89c1.95.71,3,2.6,3.07,5.66a14.26,14.26,0,0,1-1.54,7.49c-.54.91-1.75,1.44-3.62,1.6a32.81,32.81,0,0,1-8.59-.84,39.25,39.25,0,0,0-10.29-1,7.86,7.86,0,0,0-3.23.8q-3.08,1.78-3.05,4a19.23,19.23,0,0,0-.09,3.69c-.16,1.2.59,2.21,2.25,3q3.28,1.74,9.23,1.33a87.45,87.45,0,0,1,9.64-.41,37.72,37.72,0,0,1,8,1.89,19.26,19.26,0,0,1,7.07,3.87q4.08,4,4.63,10.75a29.79,29.79,0,0,1,0,5.07,17.83,17.83,0,0,1-3.19,7.93q-3,4.62-6.2,5.8a54.18,54.18,0,0,1-7,2.26l-6,.95a55.9,55.9,0,0,1-5.92.71,48.71,48.71,0,0,1-8.27-.71q-11.49-1.68-12-7.46a8,8,0,0,1,2.35-6,8.4,8.4,0,0,1,4.34-1.27,72.78,72.78,0,0,1,13.64.73,9.73,9.73,0,0,0,3.82-.31,12.44,12.44,0,0,0,5.37-2.74q2.81-2.37,2.35-5.1-.63-3.94-7.8-4.43c-.82,0-4.19.09-10.1.36q-10.54.56-14.66-2.87-5.27-4.33-6-12.79a27.26,27.26,0,0,1,1.28-10.62q2.22-6.78,6.35-9.72Q441,235.21,449.71,234.5Z" transform="translate(-38.76 -152.88)"/><path class="cls-10" d="M300.6,253l.12-.85q1-7.23,8.83-8.41a47.43,47.43,0,0,1,6.25-.57q9.87-.12,13,13.26,2.34,10.11,3,15.3L333.26,283q1.59,12.06,1.6,12.6.36,8.49-8.45,8.26-4.07-.13-5.68-2.22-1.38-1.86-2.07-18.12a118,118,0,0,0-2.24-18.64q-.69-3.44-4-3.29t-3.67,3.75c0,.26-.09,2.68-.15,7.28s.19,10.55.77,18.18q1.08,12.66-3.69,13.63-6.56,1.28-8.92-2.07c-1.13-1.69-1.81-5-2-9.86q-1.12-26.3-4.95-30a3.59,3.59,0,0,0-2.64-1,5,5,0,0,0-2.35.79q-3.27,2-3.27,11.09,0,1.44.9,12.28c.44,5.44.66,8.83.66,10.15q0,8.28-2.66,9.45a33.77,33.77,0,0,1-4.56.73q-3.21.38-5.26-3.14a13.8,13.8,0,0,1-1.73-6.36c-.08-1.88-.08-5.46,0-10.71a70.94,70.94,0,0,0-.88-13.36q-.53-3.34-2-12.09a42.59,42.59,0,0,1-.51-4.72c-.21-4.84,1-7.27,3.67-7.28.87,0,2,.07,3.38.17q2.87.95,3.75,5.58a9.69,9.69,0,0,1,2.25-4.77,15.79,15.79,0,0,1,6.45-3.1,14.31,14.31,0,0,1,7-.38c1.86.48,3.1.84,3.72,1.07q1.23.18,2.94,2.55A10.11,10.11,0,0,1,300.6,253Z" transform="translate(-38.76 -152.88)"/><path class="cls-11" d="M242.85,259.58a13.42,13.42,0,0,1-4.49-2.89,7.29,7.29,0,0,1-1.59-4.95,19.3,19.3,0,0,1,.3-3q.77-4.72,3-7c1.49-1.52,3.79-2.29,6.88-2.29a21.3,21.3,0,0,1,3.27.23q5.47.84,6.7,7.16a22.9,22.9,0,0,1,.45,4.26,8,8,0,0,1-1.21,4.64c-2.29,3.24-5,4.82-8.22,4.71A13.9,13.9,0,0,1,242.85,259.58Zm5.86,11a20.18,20.18,0,0,1,2.89.3q3.27.69,4.41,8a49.27,49.27,0,0,1,.39,10.2,50.22,50.22,0,0,0,.53,7.26,51.84,51.84,0,0,1,.53,7.27q-.15,4-3.27,5.4a8.52,8.52,0,0,1-3.58.76,12.12,12.12,0,0,1-3.73-.61q-4.33-1.37-5.17-6.77a53.06,53.06,0,0,1,0-9.28c.36-7.35.61-11.57.76-12.63q1.22-8.82,5.4-9.74A1.45,1.45,0,0,1,248.71,270.61Z" transform="translate(-38.76 -152.88)"/><path class="cls-12" d="M158.08,268.93q1.62,4.79,4.4,17.32a131.53,131.53,0,0,1,2.84,17.92,34.32,34.32,0,0,1-.61,10.35q-1.5,7-5.85,7.39-4,.33-6-1.28c-1.37-1.07-2.33-2.93-2.91-5.58a128.94,128.94,0,0,1-1.74-12.9,95.31,95.31,0,0,0-2-13c-1.83-7.5-4.11-11.19-6.8-11.07a19.37,19.37,0,0,0-6.43,1.14q-4.45,1.89-5,8.08a52.3,52.3,0,0,0,.68,10.23q1.44,11.09,2.33,15.38a17.79,17.79,0,0,1,.32,2.05q.74,9.15-6.8,9.76a18.4,18.4,0,0,1-2,0q-6.17-.27-8.57-6.29-1.53-3.78-1.69-11.37-.27-11.87-.31-14.17a161.39,161.39,0,0,1,1.37-18.14,99.71,99.71,0,0,1,2.95-16.51,14.23,14.23,0,0,1,6.62-8.21A23.7,23.7,0,0,1,133.2,247q1.38-.11,3.06-.09Q150.78,247,158.08,268.93ZM141.41,263c-.27-3.35-2.55-5-6.85-5a8,8,0,0,0-6.44,2.82,4.77,4.77,0,0,0-1.41,3.42,3.35,3.35,0,0,0,.67,1.63,5.09,5.09,0,0,0,3.79,2.22,34.21,34.21,0,0,0,4.58-.22q4.73-.37,5.6-3.75A4.41,4.41,0,0,0,141.41,263Z" transform="translate(-38.76 -152.88)"/><path class="cls-13" d="M200.44,271.58q-6.78.56-8.83,7.47-1.5,5.19-.38,14.23c.51,3.69.91,6.45,1.21,8.26q1.65,12.76-5.87,13.68-8.5,1-9.27-8.38c-.18-2.24-.31-4.71-.37-7.41l-.28-10.88q-.1-3.29-2.44-16.91c-1.35-7.71-1.83-12.64-1.44-14.76q1.22-6.85,9.13-6.65c2.72.08,4.45,1.3,5.21,3.64a22.7,22.7,0,0,1,.71,4.08,19,19,0,0,1,0,2.92q2.89-3.15,12.8-5.88a29.88,29.88,0,0,1,5.36-1.05,19.35,19.35,0,0,1,11.64,2.51q7.16,4.17,9.24,18.43,1.88,12.58,2.31,19.84c.29,4.83.44,7.61.44,8.32q-.17,10.15-7.4,10-5.76-.15-7.81-6.43a44.76,44.76,0,0,1-1.36-11.16q-.26-9.66-.79-14.36c-.4-3.71-1.28-6.2-2.64-7.5s-3.88-2-7.57-2C201.48,271.52,201,271.54,200.44,271.58Z" transform="translate(-38.76 -152.88)"/><path class="cls-14" d="M410.45,213c-2,0-4.2.12-6.29.23s-4,.13-6,.13a1.42,1.42,0,0,0-1,.24,1.31,1.31,0,0,0-.32.89c-.31,3.46,1,7.35,1.05,10.54a11.56,11.56,0,0,0,.26,2.63c.88,3.76,1,7.83,1.74,11.7.48,2.44.28,5,.44,7.47q.38,5.74.29,16.78-.11,8.48,0,20.82,0,7.92.47,13.29a7.27,7.27,0,0,0,3.67,5.66,12.33,12.33,0,0,0,6.79,1.79,26.85,26.85,0,0,0,6.59-1q4.81-1.89,5.28-11.4,0-1.8-.84-13.48c-.69-9.5-1.72-19-2.77-28.43-.54-4.89-1.11-9.78-1.4-14.69s0-9.87-.37-14.81c-.06-.79-.38-8.42-1.1-8.42Z" transform="translate(-38.76 -152.88)"/><path class="cls-15" d="M368.52,238.27h5.11a16.4,16.4,0,0,1,7.32,2.22c2.84,1.48,4.78,3.09,5.83,4.85a18.75,18.75,0,0,1,2.78,6.91q.6,3.76-.83,18.49c-.3,3.06-.45,5.81-.45,8.27q0,7.67,1.88,10.67a11.72,11.72,0,0,1,2.18,5.94,3.22,3.22,0,0,1-.38,1.73,5.81,5.81,0,0,1-5.26,2.93,11.66,11.66,0,0,1-1.72-.15c-2.11-.36-3.94-2.33-5.49-5.94l-.75,1.5q-2.64,3.69-8.57,5.71a26.68,26.68,0,0,1-10.37,1.51,14.44,14.44,0,0,1-7.74-2.33A19.11,19.11,0,0,1,343.27,284a15.65,15.65,0,0,1,4.88-11.72,18.59,18.59,0,0,1,12-5.26c.7-.05,1.6-.08,2.7-.08a22.43,22.43,0,0,1,11.65,2.78c.86.66,1.56,1.18,2.11,1.58.15-1,.22-1.55.22-1.65a28.29,28.29,0,0,0,.45-4.74,11.23,11.23,0,0,0-1.12-5.33q-1.89-3.54-4.51-4.06a17.14,17.14,0,0,0-6.77.37,7.14,7.14,0,0,1-1.65.15,8.74,8.74,0,0,1-5.79-2.32,7,7,0,0,1-2.7-5.42,8,8,0,0,1,.37-2.18c.91-2.9,2.23-4.7,4-5.41a5.46,5.46,0,0,0,1.05-.45c1.2-.55,2.08-.93,2.63-1.12A13.47,13.47,0,0,1,368.52,238.27Zm-8.64,44a4.49,4.49,0,0,0,2.41-3.91,6.76,6.76,0,0,0-.45-2.18q-1.36-3.84-5-3.84c-4.11,0-6.32,1.61-6.62,4.81-.3,2.81.43,4.71,2.18,5.72a5.39,5.39,0,0,0,2.78.75A8.45,8.45,0,0,0,359.88,282.26Z" transform="translate(-38.76 -152.88)"/></g></g></svg>